<svg width="1000" height="1000" viewBox="0 0 1000 1000" xmlns="http://www.w3.org/2000/svg"><defs/><path fill="#ffffff" transform="matrix(0.5771182889416947 0 0 0.5771182889416947 39.70859266837488 96.26325563853213)" d="M 296.20710827389 797.023643909 C 292.30710827389 803.723643909 283.70710827389 806.023643909 277.00710827389 802.223643909 L 191.20710827389 752.623643909 L 191.20710827389 776.123643909 C 191.20710827389 787.423643909 199.20710827389 801.223643909 209.00710827389 806.923643909 L 341.60710827389 883.523643909 C 351.40710827389 889.123643909 367.40710827389 889.123643909 377.10710827389 883.523643909 L 423.60710827389 856.623643909 L 296.30710827389 783.123643909 C 298.60710827389 787.323643909 298.80710827389 792.623643909 296.20710827389 797.023643909 Z"/><path fill="#ffffff" transform="matrix(0.5771182889416947 0 0 0.5771182889416947 39.70859266837488 96.26325563853213)" d="M 385.00710827389 764.223643909 C 381.10710827389 770.923643909 372.50710827389 773.223643909 365.80710827389 769.423643909 L 191.10710827389 668.523643909 L 191.10710827389 705.523643909 L 438.10710827389 848.123643909 L 496.30710827389 814.523643909 L 385.00710827389 750.223643909 C 387.40710827389 754.523643909 387.60710827389 759.823643909 385.00710827389 764.223643909 Z"/><path fill="#777777" transform="matrix(0.5771182889416947 0 0 0.5771182889416947 39.70859266837488 96.26325563853213)" d="M 475.00710827389 732.123643909 C 471.10710827389 738.823643909 462.50710827389 741.123643909 455.80710827389 737.323643909 L 206.80710827389 593.523643909 C 198.40710827389 599.523643909 191.80710827389 611.323643909 191.20710827389 621.523643909 L 510.90710827389 806.123643909 C 520.10710827389 800.123643909 527.50710827389 786.923643909 527.50710827389 776.123643909 L 527.50710827389 748.423643909 L 475.10710827389 718.123643909 C 477.40710827389 722.423643909 477.60710827389 727.623643909 475.00710827389 732.123643909 Z"/><path fill="#777777" transform="matrix(0.5771182889416947 0 0 0.5771182889416947 39.70859266837488 96.26325563853213)" d="M 448.90710827389 633.023643909 C 445.00710827389 639.723643909 436.40710827389 642.023643909 429.70710827389 638.223643909 L 279.50710827389 551.523643909 L 247.50710827389 570.023643909 L 527.60710827389 731.723643909 L 527.60710827389 664.523643909 L 449.10710827389 619.223643909 C 451.30710827389 623.323643909 451.50710827389 628.523643909 448.90710827389 633.023643909 Z"/><path fill="#777777" transform="matrix(0.5771182889416947 0 0 0.5771182889416947 39.70859266837488 96.26325563853213)" d="M 527.50710827389 622.923643909 C 527.50710827389 611.623643909 519.50710827389 597.823643909 509.70710827389 592.123643909 L 377.10710827389 515.623643909 C 367.30710827389 510.023643909 351.30710827389 510.023643909 341.60710827389 515.623643909 L 320.20710827389 527.923643909 L 527.50710827389 647.623643909 L 527.50710827389 622.923643909 Z"/><path id="text" fill="#ffffff" transform="matrix(1.6522652373086804 0 0 1.6522652373086804 325.48280522298916 127.69433610660441)" d="M 67.70338637723 192.47107164175 C 74.32838637723 192.47107164175 80.14088637723 193.81482164175 85.14088637723 196.50232164175 C 90.14088637723 199.18982164175 94.03151137723 202.93982164175 96.81276137723 207.75232164175 C 99.59401137723 212.56482164175 100.98463637723 218.22107164175 100.98463637723 224.72107164175 C 100.98463637723 230.90857164175 99.67213637723 236.51794664175 97.04713637723 241.54919664175 C 94.42213637723 246.58044664175 90.67213637723 250.56482164175 85.79713637723 253.50232164175 C 80.92213637723 256.43982164175 75.10963637723 257.90857164175 68.35963637723 257.90857164175 C 64.04713637723 257.90857164175 59.75026137723 257.68982164175 55.46901137723 257.25232164175 C 51.18776137723 256.81482164175 47.14088637723 256.22107164175 43.32838637723 255.47107164175 L 43.32838637723 194.90857164175 C 47.20338637723 194.28357164175 51.17213637723 193.72107164175 55.23463637723 193.22107164175 C 59.29713637723 192.72107164175 63.45338637723 192.47107164175 67.70338637723 192.47107164175 Z M 67.98463637723 204.65857164175 C 66.10963637723 204.65857164175 64.14088637723 204.75232164175 62.07838637723 204.93982164175 C 60.01588637723 205.12732164175 58.10963637723 205.37732164175 56.35963637723 205.68982164175 L 56.35963637723 244.68982164175 C 58.23463637723 245.06482164175 60.18776137723 245.33044664175 62.21901137723 245.48669664175 C 64.25026137723 245.64294664175 66.17213637723 245.72107164175 67.98463637723 245.72107164175 C 72.10963637723 245.72107164175 75.64088637723 244.83044664175 78.57838637723 243.04919664175 C 81.51588637723 241.26794664175 83.76588637723 238.81482164175 85.32838637723 235.68982164175 C 86.89088637723 232.56482164175 87.67213637723 229.06482164175 87.67213637723 225.18982164175 C 87.67213637723 221.18982164175 86.89088637723 217.65857164175 85.32838637723 214.59607164175 C 83.76588637723 211.53357164175 81.51588637723 209.11169664175 78.57838637723 207.33044664175 C 75.64088637723 205.54919664175 72.10963637723 204.65857164175 67.98463637723 204.65857164175 Z M 155.35963637723 219.47107164175 L 155.35963637723 230.06482164175 L 127.60963637723 230.06482164175 L 127.60963637723 245.25232164175 L 159.01588637723 245.25232164175 L 159.01588637723 256.78357164175 L 114.57838637723 256.78357164175 L 114.57838637723 193.97107164175 L 159.01588637723 193.97107164175 L 159.01588637723 205.22107164175 L 127.60963637723 205.22107164175 L 127.60963637723 219.47107164175 L 155.35963637723 219.47107164175 Z M 238.14088637723 193.50232164175 L 238.14088637723 256.78357164175 L 225.10963637723 256.78357164175 L 225.10963637723 218.53357164175 L 208.98463637723 236.15857164175 L 205.23463637723 236.15857164175 L 188.92213637723 218.53357164175 L 188.92213637723 256.78357164175 L 175.89088637723 256.78357164175 L 175.89088637723 193.50232164175 L 180.29713637723 193.50232164175 L 207.10963637723 221.43982164175 L 233.73463637723 193.50232164175 L 238.14088637723 193.50232164175 Z M 284.64088637723 192.56482164175 C 289.14088637723 192.56482164175 293.35963637723 193.36169664175 297.29713637723 194.95544664175 C 301.23463637723 196.54919664175 304.71901137723 198.79919664175 307.75026137723 201.70544664175 C 310.78151137723 204.61169664175 313.15651137723 208.06482164175 314.87526137723 212.06482164175 C 316.59401137723 216.06482164175 317.45338637723 220.50232164175 317.45338637723 225.37732164175 C 317.45338637723 230.25232164175 316.59401137723 234.68982164175 314.87526137723 238.68982164175 C 313.15651137723 242.68982164175 310.78151137723 246.14294664175 307.75026137723 249.04919664175 C 304.71901137723 251.95544664175 301.23463637723 254.20544664175 297.29713637723 255.79919664175 C 293.35963637723 257.39294664175 289.14088637723 258.18982164175 284.64088637723 258.18982164175 C 280.14088637723 258.18982164175 275.90651137723 257.39294664175 271.93776137723 255.79919664175 C 267.96901137723 254.20544664175 264.46901137723 251.95544664175 261.43776137723 249.04919664175 C 258.40651137723 246.14294664175 256.03151137723 242.68982164175 254.31276137723 238.68982164175 C 252.59401137723 234.68982164175 251.73463637723 230.25232164175 251.73463637723 225.37732164175 C 251.73463637723 220.50232164175 252.59401137723 216.06482164175 254.31276137723 212.06482164175 C 256.03151137723 208.06482164175 258.40651137723 204.61169664175 261.43776137723 201.70544664175 C 264.46901137723 198.79919664175 267.96901137723 196.54919664175 271.93776137723 194.95544664175 C 275.90651137723 193.36169664175 280.14088637723 192.56482164175 284.64088637723 192.56482164175 Z M 284.64088637723 204.84607164175 C 280.89088637723 204.84607164175 277.53151137723 205.75232164175 274.56276137723 207.56482164175 C 271.59401137723 209.37732164175 269.26588637723 211.81482164175 267.57838637723 214.87732164175 C 265.89088637723 217.93982164175 265.04713637723 221.43982164175 265.04713637723 225.37732164175 C 265.04713637723 229.25232164175 265.89088637723 232.73669664175 267.57838637723 235.83044664175 C 269.26588637723 238.92419664175 271.59401137723 241.36169664175 274.56276137723 243.14294664175 C 277.53151137723 244.92419664175 280.89088637723 245.81482164175 284.64088637723 245.81482164175 C 288.39088637723 245.81482164175 291.73463637723 244.92419664175 294.67213637723 243.14294664175 C 297.60963637723 241.36169664175 299.92213637723 238.92419664175 301.60963637723 235.83044664175 C 303.29713637723 232.73669664175 304.14088637723 229.25232164175 304.14088637723 225.37732164175 C 304.14088637723 221.43982164175 303.29713637723 217.93982164175 301.60963637723 214.87732164175 C 299.92213637723 211.81482164175 297.60963637723 209.37732164175 294.67213637723 207.56482164175 C 291.73463637723 205.75232164175 288.39088637723 204.84607164175 284.64088637723 204.84607164175 Z"/></svg>